# xmcd CD database file
#
# Track frame offsets:
#	150
#	12576
#	25127
#	42204
#	53932
#	64251
#	75133
#	87392
#	101068
#	118578
#	130102
#	144187
#	156571
#	169733
#	180993
#	193709
#	203642
#	215578
#	229651
#	241276
#
# Disc length: 3371 seconds
#
# Revision: 0
# Processed by: cddbd v1.5.2PL0 Copyright (c) Steve Scherf et al.
# Submitted via: CDex 1.51
#
DISCID=0c0d2914
DTITLE=Various Artist - Greatest Country - Love Hits (1_2)
DYEAR=2006
DGENRE=Country
TTITLE0=Johnny Cash - I Walk The Line
TTITLE1=Hank Williams - Lovesick Blues
TTITLE2=Ray Price - For The Good Times
TTITLE3=Merle Haggard - Carolyn
TTITLE4=Conway Twitty - (I Can't Believe) She Gives It All To Me
TTITLE5=George Jones - Tender Years
TTITLE6=Eddy Arnold - I'll Hold You In My Heart (Till I Can Hold You In My Arms)
TTITLE7=Lee Greenwood - Don't Underestimate My Love For You
TTITLE8=Doug Stone - Too Busy Being In Love
TTITLE9=Freddy Fender - Before The Next Teadrop Falls
TTITLE10=Mickey Gilley - Stand By Me
TTITLE11=Charlie Rich - Behind Closed Doors
TTITLE12=Hank Williams - Hey Good Lookin'
TTITLE13=Ray Price - Crazy Arms
TTITLE14=Carl Smith - Let Old Mother Nature Have Her Way
TTITLE15=Eddy Arnold - I Wanna Play House With You
TTITLE16=Jack Greene - There Goes My Everything
TTITLE17=Merle Haggard - Always Wanting You
TTITLE18=Donna Fargo - The Happiest Girl In The Whole USA
TTITLE19=Sammi Smith - Help Me Make It Through The Night
EXTD=YEAR: 2006
EXTT0=
EXTT1=
EXTT2=
EXTT3=
EXTT4=
EXTT5=
EXTT6=
EXTT7=
EXTT8=
EXTT9=
EXTT10=
EXTT11=
EXTT12=
EXTT13=
EXTT14=
EXTT15=
EXTT16=
EXTT17=
EXTT18=
EXTT19=
PLAYORDER=
